<?xml version="1.0" encoding="utf-8"?>
<!-- Generator: Adobe Illustrator 19.0.0, SVG Export Plug-In . SVG Version: 6.00 Build 0)  -->
<svg version="1.1" id="Layer_1" xmlns="http://www.w3.org/2000/svg" xmlns:xlink="http://www.w3.org/1999/xlink" x="0px" y="0px"
	 viewBox="-134.8 357 315 80" style="enable-background:new -134.8 357 315 80;" xml:space="preserve">
<style type="text/css">
	.st0{fill:#FFFFFF;}
</style>
<g>
	<path class="st0" d="M-98.1,421.8h-11.8l-8.2-12.6c-0.9,0.1-2,0.2-2.9,0.2h-3.5v12.3h-10.2v-49.6h13.7c13.9,0,22.2,6.6,22.2,18.8
		c0,7.7-3.4,12.6-9.6,15.4L-98.1,421.8z M-121.3,400.6c8.3,0,12-2.6,12-9.6c0-7-3.8-9.8-12-9.8h-3.2v19.4H-121.3z"/>
	<path class="st0" d="M-85.4,372.2h10.2v49.6h-10.2V372.2z"/>
	<path class="st0" d="M-63.9,372.2H-53l8.5,19.1c1.9,4.2,3.9,11.2,3.9,11.2s1.9-6.9,3.8-11.2l8.3-19.1h9.9l-21.7,50.1h-1
		L-63.9,372.2z"/>
	<path class="st0" d="M-7.4,372.2h32.8v9H2.8v15.8h19.9v8.8H2.8v7.2h23.6v9H-7.4V372.2z"/>
	<path class="st0" d="M76.9,421.8H65.1l-8.2-12.6c-0.9,0.1-2,0.2-2.9,0.2h-3.5v12.3H40.3v-49.6H54c13.9,0,22.2,6.6,22.2,18.8
		c0,7.7-3.4,12.6-9.6,15.4L76.9,421.8z M53.7,400.6c8.3,0,12-2.6,12-9.6c0-7-3.8-9.8-12-9.8h-3.2v19.4H53.7z"/>
	<path class="st0" d="M126.1,421.8h-11.8l-8.2-12.6c-0.9,0.1-2,0.2-2.9,0.2h-3.5v12.3H89.5v-49.6h13.7c13.9,0,22.2,6.6,22.2,18.8
		c0,7.7-3.4,12.6-9.6,15.4L126.1,421.8z M102.9,400.6c8.3,0,12-2.6,12-9.6c0-7-3.8-9.8-12-9.8h-3.2v19.4H102.9z"/>
	<path class="st0" d="M156.5,371.8h0.9l22.7,50.1h-10.7l-2.3-5.6h-20.1l-2.3,5.6h-9.9L156.5,371.8z M163.3,407.7l-3.6-8.6
		c-1.5-3.5-3-8.9-3-8.9s-1.5,5.4-2.9,8.9l-3.6,8.6H163.3z"/>
</g>
</svg>
